<svg width="242" height="146" viewBox="0 0 242 146" fill="none" xmlns="http://www.w3.org/2000/svg">
<path d="M82.31 74.8499C68.04 86.4399 76.71 93.7597 91.68 94.4897C103.36 95.1297 115.09 93.5198 126.55 91.2898C134.19 89.7098 141.84 87.8997 148.97 85.1497C165.82 78.4997 202.39 59.2298 193.12 37.0398C190.29 30.5798 184.59 25.8197 177.92 23.4797C172.71 21.3797 167.09 20.0598 161.53 19.2998C125.34 14.5598 80.94 25.0996 47.6 39.3896C33.13 45.5896 18.99 52.7798 5.72998 61.3098C11.93 56.3798 18.52 51.9298 25.28 47.7698C60.98 25.8898 102.2 12.3498 144.27 11.2998C154.38 11.3598 164.84 12.0797 174.59 14.9397C176.43 15.2997 178.75 16.2997 180.52 16.9297C182.46 17.6197 184.51 18.5096 186.39 19.6396C198.08 26.1596 205.47 41.3298 199.43 54.2898C191.46 72.0398 168.3 84.0199 150.87 90.3599C143.19 92.9899 135.33 94.6399 127.36 95.8699C115.49 97.5899 103.39 98.6897 91.41 97.2297C75.79 95.6697 65.75 85.9799 82.31 74.8599V74.8499Z" fill="white"/>
<path d="M159.99 65.0295C176.11 47.9095 144.61 47.3694 133.95 47.4894C124.97 47.6294 116.17 49.3293 107.43 51.3793C85.11 57.1393 60.89 65.8094 44.45 82.4194C43.01 83.8794 41.62 85.5894 40.36 87.1894C37.25 92.0694 34.52 98.0795 35.72 103.82C37.62 111.83 45.37 116.09 53.03 118.87C80.35 127.76 114.18 122.369 142.2 117.549C130.57 121.329 118.63 124.08 106.56 126.08C94.4 128 81.97 129.149 69.64 128.209C51.25 127.119 23.38 118.319 29.36 94.6593C31.09 88.0693 34.63 82.3195 39.32 77.5295C54.97 61.8095 76.16 53.5394 97.2 47.9994C112.21 44.3094 127.83 42.0394 143.26 44.2194C155.03 45.5094 175.91 51.3895 160 65.0395L159.99 65.0295Z" fill="white"/>
<path d="M85.0601 110.68C126.2 110.68 209.65 86.9903 230.69 49.5303C237.29 38.2203 238.32 23.7803 227.19 15.0403C218.91 7.67028 208.61 2.8302 197.6 0.200195C211.38 1.2102 230.43 8.52026 237.82 21.0203C245.77 36.1303 237.67 53.9802 227.05 65.4702C209.4 84.5102 184.57 94.9702 160.22 102.41C135.99 109.49 110.26 114.13 85.05 110.67L85.0601 110.68Z" fill="white"/>
<path d="M128 33.6895C104.67 36.9995 81.98 44.4594 60.69 54.4094C46.65 60.8594 33.53 69.5296 22.78 80.6096C13.65 90.2296 2.42004 105.37 10 118.51C17.57 130.27 35.91 134.379 49.12 136.659C94.87 143.679 143.77 131.93 187.01 117.02C194.45 114.39 201.84 111.64 209.11 108.55C195.16 116.05 180.52 122.2 165.63 127.61C128.21 140.74 87.78 149.45 48.04 143.51C32.44 140.95 13.1 136.41 4.07004 122.07C-5.52996 105.92 6.92004 87.4095 18.38 76.2495C29.91 64.8495 43.91 56.3095 58.81 50.1895C80.8 41.1195 104.2 34.7995 128.01 33.6995L128 33.6895Z" fill="white"/>
<path d="M106.43 86.2302C98.48 86.2302 92.16 84.6003 89.11 81.5303C87.44 79.8403 86.77 77.7602 87.18 75.5002C88.69 67.1802 104.58 58.1003 123.36 54.8403C136.78 52.5103 148.34 53.9202 152.82 58.4302C154.49 60.1202 155.16 62.2002 154.75 64.4602C153.24 72.7802 137.35 81.8604 118.57 85.1204C114.28 85.8704 110.17 86.2302 106.43 86.2302ZM135.53 55.7302C131.89 55.7302 127.88 56.0803 123.71 56.8103C106.3 59.8303 90.48 68.5603 89.15 75.8603C88.86 77.4703 89.32 78.9004 90.54 80.1204C94.51 84.1204 105.64 85.3401 118.24 83.1501C135.65 80.1301 151.47 71.4003 152.8 64.1003C153.09 62.4903 152.63 61.0603 151.41 59.8403C148.75 57.1603 142.89 55.7302 135.53 55.7302Z" fill="white"/>
</svg>
